<?xml version="1.0" encoding="UTF-8" standalone="no"?>
<!DOCTYPE svg PUBLIC "-//W3C//DTD SVG 1.1//EN" "http://www.w3.org/Graphics/SVG/1.1/DTD/svg11.dtd">
<svg width="100%" height="100%" viewBox="0 0 201 38" version="1.1" xmlns="http://www.w3.org/2000/svg" xmlns:xlink="http://www.w3.org/1999/xlink" xml:space="preserve" xmlns:serif="http://www.serif.com/" style="fill-rule:evenodd;clip-rule:evenodd;stroke-linecap:square;stroke-linejoin:round;stroke-miterlimit:1.5;">
    <g transform="matrix(1,0,0,1,-2011.24,2686.1)">
        <g id="Layer7">
            <path d="M2020.76,-2661.28C2020.76,-2662.59 2019.69,-2663.66 2018.38,-2663.66L2013.62,-2663.66C2012.31,-2663.66 2011.24,-2662.59 2011.24,-2661.28L2011.24,-2652.69C2011.24,-2651.38 2012.31,-2650.31 2013.62,-2650.31L2018.38,-2650.31C2019.69,-2650.31 2020.76,-2651.38 2020.76,-2652.69L2020.76,-2661.28Z" style="fill:white;"/>
            <g transform="matrix(1,0,0,1.37567,13.3672,995.655)">
                <path d="M2020.76,-2661.93C2020.76,-2662.88 2019.69,-2663.66 2018.38,-2663.66L2013.62,-2663.66C2012.31,-2663.66 2011.24,-2662.88 2011.24,-2661.93L2011.24,-2652.04C2011.24,-2651.09 2012.31,-2650.31 2013.62,-2650.31L2018.38,-2650.31C2019.69,-2650.31 2020.76,-2651.09 2020.76,-2652.04L2020.76,-2661.93Z" style="fill:white;"/>
            </g>
            <g transform="matrix(1,0,0,1.92058,27.456,2439.82)">
                <path d="M2020.76,-2662.42C2020.76,-2663.1 2019.69,-2663.66 2018.38,-2663.66L2013.62,-2663.66C2012.31,-2663.66 2011.24,-2663.1 2011.24,-2662.42L2011.24,-2651.55C2011.24,-2650.87 2012.31,-2650.31 2013.62,-2650.31L2018.38,-2650.31C2019.69,-2650.31 2020.76,-2650.87 2020.76,-2651.55L2020.76,-2662.42Z" style="fill:rgb(65,65,65);"/>
            </g>
            <g transform="matrix(1,0,0,2.68132,41.5448,4456.02)">
                <path d="M2020.76,-2662.77C2020.76,-2663.26 2019.69,-2663.66 2018.38,-2663.66L2013.62,-2663.66C2012.31,-2663.66 2011.24,-2663.26 2011.24,-2662.77L2011.24,-2651.2C2011.24,-2650.71 2012.31,-2650.31 2013.62,-2650.31L2018.38,-2650.31C2019.69,-2650.31 2020.76,-2650.71 2020.76,-2651.2L2020.76,-2662.77Z" style="fill:rgb(65,65,65);"/>
            </g>
            <path d="M2100.19,-2650.79L2093.85,-2657.24C2093.85,-2657.24 2095.02,-2660.89 2100.25,-2660.79C2104.8,-2660.69 2106.59,-2657.54 2106.59,-2657.54L2100.19,-2650.79Z" style="fill:rgb(254,254,254);"/>
            <path d="M2090.04,-2661.06L2085.34,-2665.76C2085.34,-2665.76 2091.32,-2672.59 2100.17,-2672.59C2109.02,-2672.59 2115.2,-2666.46 2115.2,-2666.46L2110.73,-2661.63C2110.73,-2661.63 2105.16,-2665.85 2100.21,-2665.85C2095.27,-2665.85 2090.04,-2661.06 2090.04,-2661.06Z" style="fill:rgb(254,254,254);"/>
            <path d="M2082.12,-2668.99L2076.98,-2674.1C2076.98,-2674.1 2086.91,-2684.18 2099.88,-2684.18C2112.86,-2684.18 2123.44,-2674.67 2123.44,-2674.67L2118.61,-2669.37C2118.61,-2669.37 2110.72,-2676.93 2100.06,-2676.93C2089.4,-2676.93 2082.12,-2668.99 2082.12,-2668.99Z" style="fill:rgb(254,254,254);"/>
            <path d="M2183.38,-2672.57C2183.38,-2675.67 2180.86,-2678.18 2177.76,-2678.18L2149.82,-2678.18C2146.72,-2678.18 2144.2,-2675.67 2144.2,-2672.57L2144.2,-2661.33C2144.2,-2658.23 2146.72,-2655.72 2149.82,-2655.72L2177.76,-2655.72C2180.86,-2655.72 2183.38,-2658.23 2183.38,-2661.33L2183.38,-2672.57Z" style="fill:rgb(254,254,254);"/>
            <path d="M2204.21,-2675.54C2204.21,-2680.23 2200.4,-2684.03 2195.71,-2684.03L2146.78,-2684.03C2142.09,-2684.03 2138.28,-2680.23 2138.28,-2675.54L2138.28,-2658.55C2138.28,-2653.87 2142.09,-2650.06 2146.78,-2650.06L2195.71,-2650.06C2200.4,-2650.06 2204.21,-2653.87 2204.21,-2658.55L2204.21,-2675.54Z" style="fill:none;stroke:rgb(136,136,136);stroke-width:3px;"/>
            <path d="M2207.49,-2673.01L2207.49,-2661.1C2207.49,-2661.1 2211.34,-2663.84 2211.34,-2667.38C2211.34,-2670.93 2207.49,-2673.01 2207.49,-2673.01Z" style="fill:rgb(136,136,136);"/>
        </g>
    </g>
</svg>
